<?xml version="1.0" encoding="utf-8"?>
<!-- Generator: Adobe Illustrator 15.0.2, SVG Export Plug-In  -->
<!DOCTYPE svg PUBLIC "-//W3C//DTD SVG 1.1//EN" "http://www.w3.org/Graphics/SVG/1.1/DTD/svg11.dtd" [
	<!ENTITY ns_flows "http://ns.adobe.com/Flows/1.0/">
<svg version="1.1"
	 xmlns="http://www.w3.org/2000/svg" xmlns:xlink="http://www.w3.org/1999/xlink" xmlns:a="http://ns.adobe.com/AdobeSVGViewerExtensions/3.0/"
	 x="0px" y="0px" width="400px" height="400px" viewBox="100 34 400 400"
	 overflow="visible" enable-background="new 100 34 400 400" xml:space="preserve">
<defs>
</defs>
<rect display="none" fill="#141414" width="2629" height="500"/>
<path d="M155.375,432.026l-23.738-23.739l98.498-98.5l4.246,0.641c0.574,0.087,1.161,0.131,1.744,0.131
	c6.442,0,11.684-5.241,11.684-11.684s-5.241-11.684-11.684-11.684s-11.684,5.241-11.684,11.684c0,0.58,0.044,1.173,0.132,1.76
	l0.631,4.237l-98.493,98.492l-23.738-23.739l6.013-6.014c0.575-0.577,58.072-59.169,58.072-135.299v-8.504h8.504
	c0.37-0.001,38.248-0.299,65.938-18.759l2.143-1.428h2.575c21.145,0,41.024,8.234,55.975,23.185
	c14.953,14.952,23.183,34.839,23.173,55.998l-0.001,2.571l-1.426,2.14c-18.534,27.817-18.748,65.545-18.748,65.923v8.504h-8.504
	c-76.344,0-134.719,57.491-135.299,58.072L155.375,432.026z M236.411,327.565l-79.707,79.707
	c18.149-15.659,67.975-53.158,131.875-56.148c1.072-13.605,5.042-41.35,19.733-64.763c-0.593-15.698-6.983-30.366-18.146-41.528
	c-11.163-11.163-25.823-17.557-41.511-18.157c-23.416,14.698-51.171,18.672-64.779,19.745
	c-2.991,63.899-40.489,113.725-56.148,131.875l79.707-79.707c0.154-15.689,12.965-28.405,28.69-28.405
	c15.82,0,28.691,12.871,28.691,28.691C264.816,314.6,252.1,327.411,236.411,327.565z"/>
<path d="M414.441,288.504H365.09V280c0-29.406-11.451-57.053-32.244-77.846S284.407,169.91,255,169.91h-8.504v-49.352H255
	c87.917,0,159.441,71.525,159.441,159.441V288.504z M381.82,271.496h15.363c-4.25-71.776-61.903-129.429-133.679-133.679v15.363
	c30.75,2.017,59.377,14.957,81.368,36.948S379.803,240.746,381.82,271.496z M493.504,274.129h-49.352v-8.504
	c0-23.612-4.615-46.498-13.718-68.02c-8.8-20.805-21.408-39.5-37.474-55.566c-16.065-16.066-34.761-28.674-55.568-37.474
	c-21.521-9.103-44.405-13.718-68.018-13.718h-8.504V41.496h8.504c59.867,0,116.15,23.313,158.483,65.646
	c42.333,42.332,65.646,98.616,65.646,158.483V274.129z M460.977,257.121h15.347c-4.365-107.453-90.992-194.08-198.445-198.445
	v15.347c22.896,0.989,45.106,5.981,66.14,14.878c22.834,9.658,43.348,23.49,60.969,41.112
	c17.622,17.622,31.454,38.134,41.111,60.967C454.996,212.015,459.988,234.225,460.977,257.121z"/>
</svg>
