<?xml version="1.0" encoding="utf-8"?>
<!-- Generator: Adobe Illustrator 15.0.2, SVG Export Plug-In  -->
<!DOCTYPE svg PUBLIC "-//W3C//DTD SVG 1.1//EN" "http://www.w3.org/Graphics/SVG/1.1/DTD/svg11.dtd" [
	<!ENTITY ns_flows "http://ns.adobe.com/Flows/1.0/">
<svg version="1.1"
	 xmlns="http://www.w3.org/2000/svg" xmlns:xlink="http://www.w3.org/1999/xlink" xmlns:a="http://ns.adobe.com/AdobeSVGViewerExtensions/3.0/"
	 x="0px" y="0px" width="400px" height="400px" viewBox="940 34 400 400"
	 overflow="visible" enable-background="new 940 34 400 400" xml:space="preserve">
<defs>
</defs>
<rect display="none" fill="#141414" width="2629" height="500"/>
<path d="M1109.121,432c-0.002,0-0.004,0-0.006,0c-23.701,0-52.45-23.52-72.394-43.129c-21.455-21.096-42.344-47.741-49.669-63.262
	c-13.712-29.054-40.628-143.885-41.767-148.757l-2.035-8.722l248.833-45.234l0.412,9.749c0.214,5.036,5.167,123.742,0.548,158.671
	c-2.605,19.703-13.368,52.438-26.173,79.608c-17.363,36.843-34.73,57.252-51.62,60.388C1113.288,431.677,1111.225,432,1109.121,432z
	 M963.913,181.644c6.646,27.75,27.657,113.619,38.521,136.636c5.501,11.656,23.566,36.2,46.213,58.468
	c24.629,24.217,46.67,38.252,60.472,38.252c0.001,0,0.002,0,0.003,0c1.065,0,2.083-0.232,3.024-0.406
	c8.164-1.516,22.786-15.723,39.341-50.849c13.536-28.723,22.67-59.3,24.696-74.625c3.684-27.856,0.802-116.362-0.299-145.984
	L963.913,181.644z"/>
<path d="M1101.687,343.666c17.872-4.064,48.039-26.733,48.039-26.733s-25.045,39.656-43.465,43.638
	c-19.148,4.141-59.478-16.904-59.478-16.904S1082.052,348.13,1101.687,343.666z"/>
<path d="M1100.65,365.362c-21.237,0.001-54.432-17.194-55.834-17.927l2.5-8.188c0.154,0.02,15.617,1.752,31.409,1.752
	c0.001,0,0.003,0,0.003,0c9.127,0,16.533-0.433,22.016-1.68c16.792-3.818,46.133-25.665,46.427-25.887l6.149,5.72
	c-2.661,4.213-26.563,41.312-46.161,45.548C1105.209,365.123,1103.02,365.362,1100.65,365.362z M1071.048,349.819
	c9.816,3.729,21.037,7.063,29.603,7.063c1.766,0,3.351-0.162,4.712-0.457c7.979-1.725,18.24-12.037,26.736-22.434
	c-9.562,5.875-20.762,11.892-29.469,13.872c-6.1,1.387-14.142,2.136-23.901,2.136c-0.001,0-0.002,0-0.003,0
	C1076.126,350,1073.548,349.901,1071.048,349.819z"/>
<path d="M1030.532,225.686c14.035-5.011,33.415,6.854,35.702,9.736c1.381,1.741-19.884,0.336-29.74,2.885
	c-11.426,2.954-32.025,14.414-32.025,14.414S1019.288,229.701,1030.532,225.686z"/>
<path d="M1005.847,255.198l-3.762-4.012c0.627-0.974,15.479-23.88,27.494-28.17c2.573-0.919,5.434-1.385,8.502-1.385
	c13.441,0,27.997,9.034,30.374,12.028c0.73,0.922,0.883,2.142,0.396,3.185c-1.026,2.204-3.144,2.265-12.052,2.518
	c-6.195,0.176-14.679,0.417-19.596,1.688C1026.263,243.88,1006.05,255.085,1005.847,255.198z M1038.081,227.301
	c-2.417,0-4.636,0.354-6.596,1.054c-5.438,1.942-12.396,9.505-17.738,16.31c6.896-3.432,15.724-7.471,22.037-9.103
	c5.536-1.432,14.029-1.673,20.854-1.867c0.726-0.021,1.49-0.042,2.251-0.066C1053.813,230.748,1045.777,227.301,1038.081,227.301z"
	/>
<path d="M1122.125,206.217c14.244-3.976,33.044,9.287,35.193,12.331c2.15,3.046-15.396-1.937-29.822,0.703
	c-11.543,2.113-32.635,12.045-32.635,12.045S1110.715,209.4,1122.125,206.217z"/>
<path d="M1096.069,233.861l-3.504-4.227c0.671-0.927,16.574-22.737,28.798-26.147c2-0.558,4.164-0.841,6.432-0.841
	c14.047,0,29.332,10.716,31.839,14.268c1.134,1.605,0.618,3.009,0.344,3.538c-1.013,1.955-3.39,1.956-4.405,1.956
	c-1.438,0-3.354-0.177-5.779-0.401c-3.486-0.322-7.824-0.722-12.334-0.722c-3.58,0-6.672,0.247-9.452,0.756
	C1116.962,224.062,1096.276,233.764,1096.069,233.861z M1127.795,208.315c-1.752,0-3.403,0.213-4.908,0.633
	c-5.526,1.542-12.861,8.645-18.513,15.068c7.072-2.939,16.175-6.374,22.611-7.552c3.122-0.571,6.548-0.849,10.474-0.849
	c4.721,0,9.159,0.405,12.74,0.736C1144.864,212.817,1136.007,208.315,1127.795,208.315z"/>
<path d="M1170.92,342.784l-0.429-17.002c11.684-0.295,32.072-14.132,54.54-37.016c22.392-22.805,39.59-46.688,46.094-59.228
	c12.936-24.944,40.315-109.14,49.353-137.371l-212.44-35.847c-2.038,18.135-6.635,60.635-9.044,95.533l-16.967-1.171
	c3.167-45.881,10.065-104.646,10.135-105.235l1.046-8.877l249.385,42.081l-2.929,9.312c-1.512,4.809-37.219,118.128-53.44,149.407
	C1270.232,268.201,1208.511,341.837,1170.92,342.784z"/>
<path d="M1186.233,239.784c0.602,1.61,0.422,3.541-0.53,4.962c0.91,1.353,1.114,3.169,0.613,4.731
	c18.568,4.249,46.049,20.593,46.049,20.593s-27.541-34.686-46.294-38.456c0.053,0.794-0.061,1.6-0.334,2.34
	C1187.008,235.556,1187.174,237.973,1186.233,239.784z"/>
<path d="M1230.916,272.507c-0.271-0.161-27.317-16.167-45.231-20.266l-3.01-0.689l0.942-2.939c0.245-0.766,0.139-1.683-0.266-2.283
	l-1.062-1.58l1.06-1.581c0.431-0.644,0.523-1.604,0.229-2.392l-0.441-1.181l0.581-1.117c0.441-0.851,0.353-2.064-0.201-2.763
	l-0.991-1.249l0.553-1.496c0.135-0.363,0.191-0.767,0.165-1.169l-0.246-3.697l3.633,0.73c19.545,3.93,46.805,38.023,47.955,39.472
	L1230.916,272.507z M1189.413,247.331c9.862,2.665,21.45,8.035,30.32,12.586c-8.328-8.908-20.223-20.217-30.211-24.281
	c0.276,1.426,0.184,2.929-0.293,4.328c0.34,1.596,0.211,3.276-0.357,4.775C1189.188,245.563,1189.37,246.44,1189.413,247.331z"/>
<path d="M1159.056,126.727c-11.638-1.961-33.145-11.611-33.145-11.611s12.171,15.733,22.916,22.25
	c0.567-0.23,1.215-0.366,1.95-0.366c1.103,0,2.012,0.296,2.736,0.781c0.769-0.616,1.779-1.003,3.042-1.003
	c0.989,0,1.815,0.248,2.5,0.646c0.799-0.795,1.926-1.313,3.389-1.313c0.964,0,1.78,0.227,2.455,0.606
	c0.214-0.024,0.426-0.051,0.656-0.051c0.017,0,0.032,0.002,0.05,0.002c0.753-0.811,1.821-1.365,3.218-1.433
	c0.804-0.874,1.965-1.458,3.51-1.458c0.912,0,1.69,0.206,2.345,0.549c0.691-0.413,1.537-0.66,2.545-0.66
	c0.896,0,1.664,0.199,2.312,0.531c4.953-2.86,8.563-5.885,9.401-7.149C1190.158,125.195,1169.094,128.419,1159.056,126.727z"/>
<path d="M1153.665,141.293l-1.728-1.156c-0.304-0.203-0.684-0.302-1.16-0.302c-0.334,0-0.623,0.052-0.884,0.158l-1.319,0.536
	l-1.217-0.738c-11.068-6.712-23.179-22.28-23.688-22.939l3.402-4.321c0.212,0.095,21.312,9.524,32.455,11.402
	c1.852,0.312,4.373,0.471,7.496,0.471c4.011,0,8.345-0.25,12.169-0.47c2.924-0.168,5.449-0.313,7.269-0.313c1.782,0,4,0,5.002,1.861
	c0.527,0.98,0.467,2.179-0.16,3.129c-1.309,1.974-5.563,5.279-10.351,8.043l-1.338,0.773l-1.374-0.706
	c-0.604-0.311-1.553-0.291-2.109,0.042l-1.363,0.814l-1.406-0.738c-0.287-0.151-0.623-0.225-1.027-0.225
	c-0.828,0-1.209,0.31-1.424,0.543l-0.787,0.856l-1.162,0.056c-0.561,0.027-0.967,0.195-1.277,0.53l-0.842,0.905l-1.347,0
	c-0.074,0.005-0.146,0.017-0.216,0.024l-0.913,0.105l-0.855-0.444c-0.286-0.161-0.645-0.243-1.065-0.243
	c-0.605,0-1.06,0.16-1.389,0.487l-1.544,1.538l-1.883-1.097c-0.302-0.176-0.652-0.261-1.073-0.261c-0.535,0-0.95,0.125-1.269,0.38
	L1153.665,141.293z M1150.777,134.166c0.924,0,1.795,0.139,2.604,0.415c1.59-0.69,3.566-0.827,5.271-0.368
	c1.115-0.616,2.397-0.936,3.791-0.936c0.841,0,1.642,0.117,2.395,0.349c0.816-0.541,1.739-0.909,2.741-1.094
	c1.312-1.043,2.934-1.588,4.753-1.588c0.79,0,1.548,0.104,2.265,0.312c1.436-0.494,3.146-0.556,4.643-0.179
	c0.906-0.551,1.739-1.093,2.494-1.61c-0.705,0.039-1.446,0.082-2.217,0.125c-3.9,0.225-8.322,0.479-12.495,0.479
	c-3.486,0-6.247-0.18-8.438-0.549c-6.422-1.083-15.549-4.341-22.709-7.166c3.902,4.187,8.78,8.905,13.404,11.942
	C1149.766,134.21,1150.266,134.166,1150.777,134.166z"/>
<path d="M1244.591,154.167c14.276,3.863,32.97-9.548,35.095-12.608c2.125-3.062-15.383,2.058-29.829-0.466
	c-11.558-2.021-32.728-11.788-32.728-11.788S1233.155,151.075,1244.591,154.167z"/>
<path d="M1250.074,158c0,0-0.001,0-0.003,0c-2.188,0-4.281-0.419-6.221-0.944c-12.25-3.312-28.326-25.072-29.005-25.994l3.471-4.292
	c0.208,0.096,20.97,9.617,32.028,11.55c2.63,0.46,5.53,0.674,8.865,0.674c4.721,0,9.268-0.461,12.92-0.827
	c2.491-0.25,4.459-0.45,5.91-0.45c0.982,0,3.284-0.001,4.295,1.93c0.275,0.526,0.795,2.074-0.32,3.682
	C1279.505,146.943,1264.18,158,1250.074,158z M1226.701,136.512c5.701,6.377,13.091,13.408,18.63,14.906
	c1.457,0.395,3.053,0.582,4.741,0.582c0.001,0,0.002,0,0.002,0c8.264,0,17.174-4.599,22.517-8.2
	c-3.761,0.377-8.423,0.847-13.381,0.847c-3.666,0-6.885-0.248-9.842-0.765C1242.924,142.755,1233.795,139.395,1226.701,136.512z"/>
</svg>
