<?xml version="1.0" encoding="utf-8"?>
<!-- Generator: Adobe Illustrator 15.0.2, SVG Export Plug-In  -->
<!DOCTYPE svg PUBLIC "-//W3C//DTD SVG 1.1//EN" "http://www.w3.org/Graphics/SVG/1.1/DTD/svg11.dtd" [
	<!ENTITY ns_flows "http://ns.adobe.com/Flows/1.0/">
<svg version="1.1"
	 xmlns="http://www.w3.org/2000/svg" xmlns:xlink="http://www.w3.org/1999/xlink" xmlns:a="http://ns.adobe.com/AdobeSVGViewerExtensions/3.0/"
	 x="0px" y="0px" width="400px" height="400px" viewBox="520 34 400 400"
	 overflow="visible" enable-background="new 520 34 400 400" xml:space="preserve">
<defs>
</defs>
<rect display="none" fill="#141414" width="2629" height="500"/>
<path d="M847.387,205.185c-5.083,0-10.316-3-19.333-17.643c-3.208-5.211-8.656-15.037-9.616-19.222
	c-1.108-4.827,0.804-8.716,2.59-11.372c-1.585-1.785-3.119-4.376-3.658-8.135c-1.265-8.818,4.79-13.464,7.375-15.448
	c0.097-0.073,0.2-0.153,0.307-0.235c0.09-3.066-0.136-9.527-0.507-16.548c-30.125,9.829-90.343,29.155-99.696,29.698
	c-0.295,0.017-0.619,0.027-0.964,0.027c-11.405,0-55.091-12.622-81.672-21.106c-71.395-22.787-73.498-30.111-74.889-34.958
	c-0.802-2.794-0.367-5.762,1.225-8.355c2.553-4.161,6.826-11.124,80.699-28.359c34.963-8.158,69.4-15.061,69.743-15.126L719.787,38
	h0.812c9.766,0,48.371,8.943,80.108,17.022c69.447,17.679,72.856,22.933,74.895,25.997c2.818,4.24,3.445,9.056,1.767,13.446
	c-2.264,5.922-8.235,9.637-13.143,11.75c-0.115,8.971,0.042,18.288,0.496,23.221c3.28,1.187,7.781,4.057,8.929,12.045
	c0.639,4.46-1.387,7.949-3.103,10.333c2.608,2.879,5.978,7.868,3.703,14.799c-1.085,3.306-4.526,11.849-8.467,19.678
	C858.853,200.063,853.866,205.185,847.387,205.185z M835.567,165.841c1.986,4.523,7.393,14.07,11.404,19.463
	c3.603-5.908,8.436-16.562,10.59-22.47c-0.181-0.182-0.363-0.363-0.518-0.516c-1.875-1.855-5.012-4.959-5.012-9.805
	c0-3.463,1.506-6.194,2.94-8.243c-0.493-0.21-1.005-0.46-1.524-0.762c-4.821-2.797-5.985-7.628-6.229-25.848
	c-0.118-8.864,0.11-17.369,0.12-17.727l0.175-6.393l6.191-1.605c1.632-0.434,3.471-1.151,4.986-1.896
	c-8.424-3.389-29.286-10.003-65.786-19.198c-36.228-9.125-64.662-14.901-71.609-15.312c-5.488,1.071-34.835,6.851-65.273,13.887
	c-39.006,9.018-57.432,14.906-66.099,18.349c9.364,4.522,28.265,12.064,61.851,22.627c35.966,11.311,66.321,18.909,72.108,18.909
	c7.135-0.628,66.187-19.27,105.819-32.304l10.382-3.415l0.759,10.902c0.897,12.889,1.755,29.176,0.745,33.574
	c-1.034,4.501-4.261,7.088-6.306,8.66c1.887,1.46,4.643,4.254,4.643,9.069c0,4.292-2.377,7.433-3.949,9.512
	C835.854,165.459,835.71,165.649,835.567,165.841z"/>
<path d="M721.538,97.437c-14.22,0-23.053-5.536-23.053-14.448c0-10.604,14.666-14.005,20.971-15.035L720.024,68h0.575
	c7.81,0,24.931,3.705,24.931,15.127c0,3.087-1.174,10.495-12.041,13.243C728.994,97.506,724.144,97.437,721.538,97.437z
	 M716.946,82.943c1.315,0.193,2.858,0.321,4.592,0.321c2.565,0,4.508-0.109,5.977-0.27c-1.952-0.573-4.248-1.019-6.354-1.088
	C719.765,82.165,718.297,82.532,716.946,82.943z"/>
<path d="M703.92,431.656l0.594-9.202c0.766-11.969,0.125-24.883-1.369-28.994c-4.312-1.561-18.176-2.904-31.179-2.956l-5.061-0.021
	l-2.396-4.457c-1.807-3.363-44.183-83.068-36.956-145.012c4.165-35.698,17.783-58.242,30.383-71.868
	c-4.009-1.11-6.608-4.706-7.739-10.72c-1.163-6.185-1.095-14.441-1.046-16.825c0.198-9.71,1.154-14.762,6.046-17.208
	c1.224-0.612,2.551-0.922,3.945-0.922c3.181,0,5.619,0.94,32.087,13.852c10.56,5.151,25.967,12.667,31.54,14.793
	c4.724-2.049,16.797-8.267,25.914-12.963c29.603-15.249,35.074-17.734,39.032-17.734c2.405,0,4.643,0.912,6.299,2.568
	c2.111,2.111,4.382,5.592,4.6,20.254c0.062,4.188-0.007,14.442-1.983,19.208c-1.127,2.717-2.972,4.37-4.903,5.249
	c12.629,13.746,26.998,36.505,32.671,71.958c8.671,54.197-30.966,142.396-32.657,146.115L789.474,392h-5.473
	c-12.55,0-25.9,0.813-30.47,2.099c-1.466,4.272-2.396,16.639-2.031,28.258l0.27,8.563L703.92,431.656z M677.238,373.562
	c14.585,0.32,31.162,1.868,37.206,6.904c4.691,3.909,6.875,11.73,7.306,26.154c0.081,2.721,0.088,5.366,0.058,7.727l12.65-0.21
	c0.038-2.535,0.126-5.427,0.303-8.395c0.89-14.896,3.358-22.377,8.522-25.819c5.909-3.939,21.377-5.146,35.122-5.381
	c8.098-19.066,35.971-88.869,29.197-131.199c-7.606-47.541-32.129-68.475-42.319-75.268c-3.338-2.226-4.824-6.216-3.699-9.929
	c1.995-6.587,8.954-6.587,12.299-6.587c2.199,0,4.936,0.118,7.58,0.293c0.166-3.08,0.193-6.889,0.065-10.248
	c-7.09,3.414-17.372,8.71-25.058,12.668c-27.562,14.197-30.109,15.231-33.471,15.231c-3.773,0-9.369-2.354-36.261-15.449
	c1.331,1.068,2.251,2.513,2.755,4.33c1.056,3.814-0.599,7.795-4.119,9.907c-10.414,6.249-35.251,26.036-40.928,74.693
	C638.742,291.885,668.646,356.29,677.238,373.562z M666.137,144.095c0.012,2.861,0.132,5.875,0.359,8.281
	c1.022-0.056,2.097-0.119,3.158-0.182c3.274-0.194,6.66-0.396,9.066-0.396c1.675,0,3.167,0.177,4.472,0.528
	C677.729,149.662,671.273,146.515,666.137,144.095z"/>
<path d="M648,418c0,0,1-15,9-15s3,7,9,7s0-7,7-7c9,0,2,7,9,7c4,0,0-7,9-7c6,0,8,12,8,15s-1,16-8,16c-6,0-4-7-9-7s-1,7-9,7
	c-5,0-2-7-7-7s-3,7-9,7C649,434,648,418,648,418z"/>
<path d="M691,435.417c-4.015,0-5.314-2.615-6.263-4.525c-0.853-1.716-1.29-2.475-2.737-2.475c-1.097,0-1.281,0.29-1.822,1.918
	c-0.672,2.024-1.688,5.082-7.178,5.082c-3.569,0-4.348-2.725-4.863-4.527c-0.563-1.972-0.847-2.473-2.137-2.473
	c-1.447,0-1.884,0.759-2.737,2.475c-0.949,1.91-2.248,4.525-6.263,4.525c-9.226,0-10.37-16.621-10.415-17.328l-0.006-0.092
	l0.006-0.092c0.044-0.666,1.194-16.322,10.414-16.322c5.367,0,6.182,2.959,6.721,4.917c0.429,1.558,0.574,2.083,2.279,2.083
	c1.561,0,1.579-0.264,1.697-1.978c0.121-1.756,0.345-5.022,5.303-5.022c5.557,0,6.372,2.61,6.7,5.058
	c0.205,1.53,0.26,1.942,2.3,1.942c0.45,0,0.531,0,0.941-1.437c0.594-2.081,1.589-5.563,8.059-5.563
	c7.162,0,9.417,12.797,9.417,16.417C700.417,418.174,700.31,435.417,691,435.417z M682,425.583c3.265,0,4.427,2.339,5.275,4.048
	c0.963,1.939,1.567,2.952,3.725,2.952c5.465,0,6.583-11.503,6.583-14.583c0-3.163-2.052-13.583-6.583-13.583
	c-4.331,0-4.795,1.626-5.333,3.509c-0.397,1.391-0.998,3.491-3.667,3.491c-4.521,0-4.889-2.754-5.11-4.4
	c-0.224-1.676-0.348-2.6-3.89-2.6c-2.312,0-2.353,0.601-2.475,2.382c-0.111,1.614-0.317,4.618-4.525,4.618
	c-3.864,0-4.555-2.506-5.012-4.164c-0.487-1.769-0.781-2.836-3.988-2.836c-6.225,0-7.478,12.448-7.579,13.594
	c0.283,4.151,2.164,14.572,7.579,14.572c2.158,0,2.761-1.013,3.725-2.952c0.849-1.709,2.011-4.048,5.275-4.048
	c3.569,0,4.348,2.725,4.863,4.527c0.563,1.972,0.847,2.473,2.137,2.473c3.445,0,3.882-1.317,4.488-3.141
	C677.999,427.905,678.77,425.583,682,425.583z"/>
<path d="M757,418c0,0,1-15,9-15s3,7,9,7s0-7,7-7c9,0,2,7,9,7c4,0,0-7,9-7c6,0,8,12,8,15s-1,16-8,16c-6,0-4-7-9-7s-1,7-9,7
	c-5,0-2-7-7-7s-3,7-9,7C758,434,757,418,757,418z"/>
<path d="M800,435.417c-4.016,0-5.314-2.615-6.264-4.525c-0.852-1.716-1.29-2.475-2.736-2.475c-1.097,0-1.281,0.29-1.822,1.918
	c-0.672,2.024-1.688,5.082-7.178,5.082c-3.569,0-4.348-2.725-4.862-4.527c-0.563-1.972-0.848-2.473-2.138-2.473
	c-1.446,0-1.885,0.759-2.736,2.475c-0.949,1.91-2.248,4.525-6.264,4.525c-9.226,0-10.37-16.621-10.415-17.328l-0.005-0.092
	l0.006-0.092c0.044-0.666,1.194-16.322,10.414-16.322c5.367,0,6.182,2.959,6.722,4.917c0.429,1.558,0.573,2.083,2.278,2.083
	c1.562,0,1.579-0.264,1.697-1.978c0.12-1.756,0.345-5.022,5.303-5.022c5.558,0,6.372,2.61,6.7,5.058
	c0.204,1.53,0.26,1.942,2.3,1.942c0.45,0,0.531,0,0.941-1.437c0.595-2.081,1.59-5.563,8.059-5.563
	c7.162,0,9.417,12.797,9.417,16.417C809.417,418.174,809.31,435.417,800,435.417z M791,425.583c3.265,0,4.427,2.339,5.275,4.048
	c0.964,1.939,1.567,2.952,3.725,2.952c5.466,0,6.583-11.503,6.583-14.583c0-3.163-2.053-13.583-6.583-13.583
	c-4.331,0-4.795,1.626-5.333,3.509c-0.397,1.391-0.998,3.491-3.667,3.491c-4.521,0-4.89-2.754-5.109-4.4
	c-0.225-1.676-0.349-2.6-3.891-2.6c-2.312,0-2.353,0.601-2.475,2.382c-0.111,1.614-0.317,4.618-4.525,4.618
	c-3.864,0-4.555-2.506-5.012-4.164c-0.487-1.769-0.781-2.836-3.988-2.836c-6.225,0-7.479,12.448-7.579,13.594
	c0.283,4.151,2.164,14.572,7.579,14.572c2.157,0,2.761-1.013,3.725-2.952c0.849-1.709,2.011-4.048,5.275-4.048
	c3.569,0,4.348,2.725,4.862,4.527c0.563,1.972,0.848,2.473,2.138,2.473c3.445,0,3.883-1.317,4.488-3.141
	C786.998,427.905,787.77,425.583,791,425.583z"/>
<path d="M796.32,225.5c0,16.793-14.246,30.405-31.82,30.405s-31.82-13.612-31.82-30.405c0-16.792,14.246-30.406,31.82-30.406
	S796.32,208.708,796.32,225.5z M755,210.094c-9.014,0-16.32,6.982-16.32,15.595s7.307,15.594,16.32,15.594s16.32-6.981,16.32-15.594
	S764.014,210.094,755,210.094z"/>
<path d="M764.5,257.405c-18.373,0-33.32-14.312-33.32-31.905s14.947-31.906,33.32-31.906s33.32,14.313,33.32,31.906
	S782.873,257.405,764.5,257.405z M764.5,196.594c-16.719,0-30.32,12.967-30.32,28.906s13.602,28.905,30.32,28.905
	s30.32-12.967,30.32-28.905S781.219,196.594,764.5,196.594z M755,242.783c-9.826,0-17.82-7.668-17.82-17.094
	s7.994-17.095,17.82-17.095s17.82,7.668,17.82,17.095S764.826,242.783,755,242.783z M755,211.594c-8.172,0-14.82,6.323-14.82,14.095
	c0,7.771,6.648,14.094,14.82,14.094s14.82-6.323,14.82-14.094C769.82,217.917,763.172,211.594,755,211.594z"/>
<path d="M720.32,225.5c0,16.793-14.247,30.405-31.82,30.405s-31.82-13.612-31.82-30.405c0-16.792,14.246-30.406,31.82-30.406
	S720.32,208.708,720.32,225.5z M697,210.094c-9.014,0-16.32,6.982-16.32,15.595s7.307,15.594,16.32,15.594s16.32-6.981,16.32-15.594
	S706.014,210.094,697,210.094z"/>
<path d="M688.5,257.405c-18.373,0-33.32-14.312-33.32-31.905s14.947-31.906,33.32-31.906c18.373,0,33.32,14.313,33.32,31.906
	S706.873,257.405,688.5,257.405z M688.5,196.594c-16.718,0-30.32,12.967-30.32,28.906s13.602,28.905,30.32,28.905
	c16.719,0,30.32-12.967,30.32-28.905S705.219,196.594,688.5,196.594z M697,242.783c-9.826,0-17.82-7.668-17.82-17.094
	s7.994-17.095,17.82-17.095s17.82,7.668,17.82,17.095S706.826,242.783,697,242.783z M697,211.594c-8.172,0-14.82,6.323-14.82,14.095
	c0,7.771,6.648,14.094,14.82,14.094s14.82-6.323,14.82-14.094C711.82,217.917,705.172,211.594,697,211.594z"/>
<path d="M713,265h26c0,0,1,4-1,9s-8,16.5-12,16.5s-12-12.25-13-17.25S713,265,713,265z"/>
<path d="M726,291.875c-5.28,0-13.511-13.845-14.471-18.644c-1.06-5.299-0.015-8.996,0.03-9.15l0.314-1.081h28.314l0.271,1.156
	c0.046,0.192,1.084,4.773-1.067,10.15C739.322,274.482,732.192,291.875,726,291.875z M714.232,266
	c-0.188,1.299-0.354,3.679,0.238,6.644c1.032,5.157,8.897,16.231,11.529,16.231c2.334,0,7.783-8.623,10.607-15.682
	c1.208-3.021,1.22-5.727,1.094-7.193H714.232z"/>
</svg>
